<svg width="121" height="35" viewBox="0 0 121 35" fill="none" xmlns="http://www.w3.org/2000/svg">
<g id="logo_frontend-ninja">
<g id="logo_frontend-ninja_2">
<g id="logo_glyph">
<path id="Combined Shape" fill-rule="evenodd" clip-rule="evenodd" d="M23.3313 18.2329C25.9061 16.56 27.6079 13.6655 27.6079 10.375C27.6079 5.19733 23.3941 1 18.1962 1C12.9982 1 8.78439 5.19733 8.78439 10.375C8.78439 13.6655 10.4862 16.56 13.061 18.2329C11.7435 18.7592 10.5264 19.4819 9.44616 20.3648L4.23999 15.1789C3.50488 14.4467 2.31304 14.4467 1.57794 15.1789C0.842834 15.9112 0.842836 17.0984 1.57794 17.8306L6.88481 23.1167C5.31888 25.342 4.39791 28.0505 4.39226 30.9729C4.85783 30.6694 9.2195 27.9384 13.5621 29.2029C18.1569 30.5409 30.0067 31.3088 31.2772 29.2029C31.6493 29.626 31.8719 30.0552 31.9901 30.4711C31.779 24.9135 28.2565 20.2003 23.3313 18.2329ZM14.4216 7.875C13.0409 7.875 11.9216 8.99429 11.9216 10.375C11.9216 11.7557 13.0409 12.875 14.4216 12.875H21.9707C23.3514 12.875 24.4707 11.7557 24.4707 10.375C24.4707 8.99429 23.3514 7.875 21.9707 7.875H14.4216ZM16.9413 10.375C16.9413 11.0654 16.3794 11.625 15.6864 11.625C14.9933 11.625 14.4315 11.0654 14.4315 10.375C14.4315 9.68464 14.9933 9.125 15.6864 9.125C16.3794 9.125 16.9413 9.68464 16.9413 10.375ZM20.706 11.625C21.399 11.625 21.9609 11.0654 21.9609 10.375C21.9609 9.68464 21.399 9.125 20.706 9.125C20.0129 9.125 19.4511 9.68464 19.4511 10.375C19.4511 11.0654 20.0129 11.625 20.706 11.625Z" fill="white"/>
</g>
<path id="FRONTEND" fill-rule="evenodd" clip-rule="evenodd" d="M46.8594 10.3516H42.3594V15H40.0156V3.625H47.4219V5.52344H42.3594V8.46094H46.8594V10.3516ZM52.9922 10.8359H51.125V15H48.7812V3.625H53.0078C54.3516 3.625 55.388 3.92448 56.1172 4.52344C56.8464 5.1224 57.2109 5.96874 57.2109 7.0625C57.2109 7.83855 57.043 8.48567 56.707 9.00391C56.3711 9.52214 55.862 9.93489 55.1797 10.2422L57.6406 14.8906V15H55.125L52.9922 10.8359ZM51.125 8.9375H53.0156C53.6042 8.9375 54.0599 8.78776 54.3828 8.48828C54.7057 8.1888 54.8672 7.77604 54.8672 7.25C54.8672 6.71354 54.7148 6.29167 54.4102 5.98438C54.1055 5.67708 53.638 5.52344 53.0078 5.52344H51.125V8.9375ZM68.3359 9.57031C68.3359 10.6901 68.138 11.6719 67.7422 12.5156C67.3464 13.3594 66.78 14.0104 66.043 14.4688C65.306 14.9271 64.4609 15.1562 63.5078 15.1562C62.5651 15.1562 61.724 14.9297 60.9844 14.4766C60.2448 14.0234 59.6719 13.3763 59.2656 12.5352C58.8594 11.694 58.6536 10.7266 58.6484 9.63281V9.07031C58.6484 7.95052 58.8503 6.96485 59.2539 6.11328C59.6576 5.26171 60.2279 4.60808 60.9648 4.15234C61.7018 3.69661 62.5443 3.46875 63.4922 3.46875C64.4401 3.46875 65.2825 3.69661 66.0195 4.15234C66.7565 4.60808 67.3268 5.26171 67.7305 6.11328C68.1341 6.96485 68.3359 7.94791 68.3359 9.0625V9.57031ZM65.9609 9.05469C65.9609 7.86197 65.7474 6.95573 65.3203 6.33594C64.8932 5.71614 64.2839 5.40625 63.4922 5.40625C62.7057 5.40625 62.099 5.71224 61.6719 6.32422C61.2448 6.9362 61.0286 7.83333 61.0234 9.01562V9.57031C61.0234 10.7318 61.237 11.6328 61.6641 12.2734C62.0911 12.9141 62.7057 13.2344 63.5078 13.2344C64.2943 13.2344 64.8984 12.9258 65.3203 12.3086C65.7422 11.6914 65.9557 10.7917 65.9609 9.60938V9.05469ZM79.2891 15H76.9453L72.3828 7.51562V15H70.0391V3.625H72.3828L76.9531 11.125V3.625H79.2891V15ZM89.6719 5.52344H86.1875V15H83.8438V5.52344H80.4062V3.625H89.6719V5.52344ZM97.8516 10.0703H93.3516V13.1172H98.6328V15H91.0078V3.625H98.6172V5.52344H93.3516V8.23438H97.8516V10.0703ZM109.258 15H106.914L102.352 7.51562V15H100.008V3.625H102.352L106.922 11.125V3.625H109.258V15ZM111.305 15V3.625H114.805C115.805 3.625 116.699 3.85026 117.488 4.30078C118.277 4.7513 118.893 5.39192 119.336 6.22266C119.779 7.05339 120 7.99739 120 9.05469V9.57812C120 10.6354 119.783 11.5755 119.348 12.3984C118.913 13.2214 118.299 13.8594 117.508 14.3125C116.716 14.7656 115.823 14.9948 114.828 15H111.305ZM113.648 5.52344V13.1172H114.781C115.698 13.1172 116.398 12.8177 116.883 12.2188C117.367 11.6198 117.615 10.763 117.625 9.64844V9.04688C117.625 7.89062 117.385 7.01433 116.906 6.41797C116.427 5.82161 115.727 5.52344 114.805 5.52344H113.648Z" fill="#88C542"/>
<path id="NINJA" opacity="0.7" fill-rule="evenodd" clip-rule="evenodd" d="M49.2656 31H46.9219L42.3594 23.5156V31H40.0156V19.625H42.3594L46.9297 27.125V19.625H49.2656V31ZM62.0047 31H59.6609V19.625H62.0047V31ZM81.6266 31H79.2828L74.7203 23.5156V31H72.3766V19.625H74.7203L79.2906 27.125V19.625H81.6266V31ZM96.4594 19.625H98.8031V27.5C98.8031 28.224 98.643 28.8633 98.3227 29.418C98.0023 29.9727 97.5505 30.401 96.9672 30.7031C96.3839 31.0052 95.725 31.1562 94.9906 31.1562C93.7875 31.1562 92.85 30.8503 92.1781 30.2383C91.5062 29.6263 91.1703 28.7604 91.1703 27.6406H93.5297C93.5297 28.1979 93.6469 28.6094 93.8812 28.875C94.1156 29.1406 94.4854 29.2734 94.9906 29.2734C95.4385 29.2734 95.7953 29.1198 96.0609 28.8125C96.3266 28.5052 96.4594 28.0677 96.4594 27.5V19.625ZM115.433 28.6562H111.323L110.542 31H108.05L112.284 19.625H114.456L118.714 31H116.222L115.433 28.6562ZM111.956 26.7578H114.8L113.37 22.5L111.956 26.7578Z" fill="#88C542"/>
</g>
</g>
</svg>
