<svg width="18" height="18" viewBox="0 0 18 18" fill="none" xmlns="http://www.w3.org/2000/svg">
<path fill-rule="evenodd" clip-rule="evenodd" d="M0 9C0 13.9706 4.02944 18 9 18C13.9706 18 18 13.9706 18 9C18 4.02944 13.9706 0 9 0C4.02944 0 0 4.02944 0 9ZM16.6154 9C16.6154 13.2059 13.2059 16.6154 9 16.6154C4.79414 16.6154 1.38462 13.2059 1.38462 9C1.38462 4.79414 4.79414 1.38462 9 1.38462C13.2059 1.38462 16.6154 4.79414 16.6154 9Z" fill="white"/>
<path d="M7.12598 11.972L8.10505 12.9511L12.0531 9.00309L8.10902 5.04956L7.12878 6.02746L10.0961 9.00191L7.12598 11.972Z" fill="white"/>
</svg>
